<svg xmlns="http://www.w3.org/2000/svg" width="337.295" height="353.033" viewBox="0 0 337.295 353.033">
  <g id="Group_62" data-name="Group 62" transform="translate(-1059.705 -138.527)">
    <g id="Background_Simple" data-name="Background Simple" transform="translate(1061.918 138.527)">
      <g id="Group_1" data-name="Group 1" transform="translate(0 0)">
        <path id="Path_1" data-name="Path 1" d="M351.111,103.239a118.122,118.122,0,0,0-8.582-12.054c-17.875-21.974-39.163-41.537-64.456-54.653C238.709,16.122,188.863,11.342,146.5,26.15,96.221,43.724,74.011,86.9,65.7,137.178q-1.741,10.534-2.679,21.182c-2.084,23.166-1.06,46.6-3.912,69.689-2.922,23.648-16.051,44.72-15.7,68.968a78.426,78.426,0,0,0,10.88,39.176c19.742,32.787,59.778,38.081,94.637,32.374,100.809-16.5,112.2-55.74,154.727-64.389,38.348-7.8,64.6-47.2,72.128-83.428C384.111,180.682,372.443,137.445,351.111,103.239Z" transform="translate(-43.406 -17.527)" fill="#fae0e1"/>
      </g>
    </g>
    <g id="Graphics" transform="translate(1060.205 164.475)">
      <g id="Group_8" data-name="Group 8" transform="translate(0 0)" opacity="0.3">
        <g id="Group_2" data-name="Group 2" transform="translate(9.182 28.137)">
          <path id="Path_3" data-name="Path 3" d="M84,87v24.912H214.01V315.1h10.9" transform="translate(-59.866 -87)" fill="none" stroke="#000" stroke-linejoin="round" stroke-width="1" stroke-dasharray="5"/>
          <path id="Path_4" data-name="Path 4" d="M53,325.378V237.407H88.811v92.642h94.978V158H343.382" transform="translate(-53 -102.726)" fill="none" stroke="#000" stroke-linejoin="round" stroke-width="1" stroke-dasharray="5"/>
        </g>
        <g id="Group_3" data-name="Group 3" transform="translate(23.974)">
          <path id="Path_5" data-name="Path 5" d="M90.684,60.2A9.342,9.342,0,1,0,72,60.2c0,5.16,9.342,15.57,9.342,15.57S90.684,65.359,90.684,60.2Z" transform="translate(-72 -50.857)" fill="none" stroke="#000" stroke-linejoin="round" stroke-width="1"/>
          <path id="Path_6" data-name="Path 6" d="M86.865,61.718a4,4,0,1,0-4,4A4,4,0,0,0,86.865,61.718Z" transform="translate(-73.519 -52.376)" fill="none" stroke="#000" stroke-linejoin="round" stroke-width="1"/>
        </g>
        <g id="Group_4" data-name="Group 4" transform="translate(296.243 62.078)">
          <path id="Path_7" data-name="Path 7" d="M436.984,138.222a7.625,7.625,0,1,0-15.251,0c0,4.211,7.625,12.708,7.625,12.708S436.984,142.433,436.984,138.222Z" transform="translate(-421.733 -130.597)" fill="none" stroke="#000" stroke-linejoin="round" stroke-width="1"/>
          <circle id="Ellipse_1" data-name="Ellipse 1" cx="3.268" cy="3.268" r="3.268" transform="translate(4.358 4.357)" fill="none" stroke="#000" stroke-linejoin="round" stroke-width="1"/>
        </g>
        <g id="Group_5" data-name="Group 5" transform="translate(270.141 102.095)">
          <path id="Path_8" data-name="Path 8" d="M418.641,197.217a15.218,15.218,0,0,0-30.436,0c0,8.4,15.218,25.364,15.218,25.364S418.641,205.622,418.641,197.217Z" transform="translate(-388.205 -182)" fill="none" stroke="#000" stroke-linejoin="round" stroke-width="1"/>
          <circle id="Ellipse_2" data-name="Ellipse 2" cx="6.522" cy="6.522" r="6.522" transform="translate(8.696 8.696)" fill="none" stroke="#000" stroke-linejoin="round" stroke-width="1"/>
        </g>
        <g id="Group_6" data-name="Group 6" transform="translate(25.589 119.222)">
          <path id="Path_9" data-name="Path 9" d="M97.768,215.846a11.847,11.847,0,0,0-23.693,0c0,6.543,11.847,19.744,11.847,19.744S97.768,222.389,97.768,215.846Z" transform="translate(-74.075 -204)" fill="none" stroke="#000" stroke-linejoin="round" stroke-width="1"/>
          <path id="Path_10" data-name="Path 10" d="M92.925,217.772a5.077,5.077,0,1,0-5.077,5.077A5.077,5.077,0,0,0,92.925,217.772Z" transform="translate(-76.001 -205.926)" fill="none" stroke="#000" stroke-linejoin="round" stroke-width="1"/>
        </g>
        <g id="Group_7" data-name="Group 7" transform="translate(0 257.332)">
          <path id="Path_11" data-name="Path 11" d="M56.456,389.028a7.625,7.625,0,0,0-15.251,0c0,4.211,7.625,12.708,7.625,12.708S56.456,393.239,56.456,389.028Z" transform="translate(-41.205 -381.403)" fill="none" stroke="#000" stroke-linejoin="round" stroke-width="1"/>
          <circle id="Ellipse_3" data-name="Ellipse 3" cx="3.268" cy="3.268" r="3.268" transform="translate(4.358 4.357)" fill="none" stroke="#000" stroke-linejoin="round" stroke-width="1"/>
        </g>
      </g>
    </g>
    <g id="Device" transform="translate(1126.742 153.449)">
      <g id="Group_25" data-name="Group 25" transform="translate(0 0)">
        <g id="Group_12" data-name="Group 12" transform="translate(7.464 5.43)">
          <path id="Path_12" data-name="Path 12" d="M296.461,67.426v236.9a23.761,23.761,0,0,1-23.76,23.76H160.02a23.761,23.761,0,0,1-23.76-23.76V67.426a23.759,23.759,0,0,1,23.76-23.752h47.115l.047.171c1.394,5.014,4.6,8.275,8.159,8.275h2.04c3.558,0,6.765-3.262,8.159-8.275l.054-.171H272.7A23.759,23.759,0,0,1,296.461,67.426Z" transform="translate(-136.26 -43.671)" fill="#d6d6d6"/>
          <g id="Group_11" data-name="Group 11">
            <path id="Path_13" data-name="Path 13" d="M234.5,217.183V142.224h34.411a1.557,1.557,0,0,0,1.416-.909l26.134-57.142V76.686l-28.55,62.424H234.5V43.67h-3.114V82.046c-31.077-3.067-49.282,11.586-59.115,24.572A83.627,83.627,0,0,0,158.715,134.2L136.264,119.95v3.689l40.209,25.529h-.026v45.546l-40.183-7.33v3.166L231.382,207.9v8.536l-95.118,75.982V296.4l43.017-34.362L212.068,306.4a1.553,1.553,0,0,0,1.638.583l51.684-13.236v34.34H268.5V263.616a1.555,1.555,0,0,0-.855-1.389l-11.608-5.873,19.839-21.642,20.579,7.915v-3.336l-20.451-7.866a1.559,1.559,0,0,0-1.707.4l-21.146,23.068L213.4,234.783l20.51-16.384A1.554,1.554,0,0,0,234.5,217.183Zm30.893,47.39v25.956L213.949,303.7l-32.232-43.609,29.01-23.174Zm-34.007-59.84-51.821-9.452V151.129l51.821,32.9Zm0-24.391-69.9-44.383A81.149,81.149,0,0,1,174.75,108.5c13.6-17.955,32.647-25.794,56.632-23.327Z" transform="translate(-136.261 -43.67)" fill="#fff"/>
            <g id="Group_10" data-name="Group 10" transform="translate(0 27.505)">
              <path id="Path_14" data-name="Path 14" d="M328.992,207.41h-4.663l-11.771,29.435H289.016l12.425-28.781H283.13v-28.12H310.6l18.4-35.71Z" transform="translate(-168.791 -93.449)" fill="#c4c4c4"/>
              <rect id="Rectangle_1" data-name="Rectangle 1" width="24" height="20" transform="translate(5.794 -0.384)" fill="#c4c4c4"/>
              <rect id="Rectangle_2" data-name="Rectangle 2" width="16.816" height="14.013" transform="translate(33.273)" fill="#c4c4c4"/>
              <path id="Path_15" data-name="Path 15" d="M177.684,146.948l57.8,37.328V106.008S194.141,101.994,177.684,146.948Z" transform="translate(-145.435 -84.962)" fill="#c4c4c4"/>
              <rect id="Rectangle_3" data-name="Rectangle 3" width="10.899" height="9.083" transform="translate(55.071)" fill="#c4c4c4"/>
              <path id="Path_16" data-name="Path 16" d="M241.02,314,220,328.792l11.678,21.8,42.039-2.336,2.336-20.241L259.7,321.007l-7.007,10.9-7.007-3.893,6.228-11.678Z" transform="translate(-154.808 -131.051)" fill="#c4c4c4"/>
              <g id="Group_9" data-name="Group 9" transform="translate(0 138.149)">
                <path id="Path_17" data-name="Path 17" d="M155.115,257.342V299.4l-18.855,9.591V256.454Z" transform="translate(-136.26 -256.454)" fill="#c4c4c4"/>
                <path id="Path_18" data-name="Path 18" d="M193.358,283.766V259.139L167.2,257.913v39.151Z" transform="translate(-143.113 -256.777)" fill="#c4c4c4"/>
                <path id="Path_19" data-name="Path 19" d="M205.841,259.724v22.448l15.7-7.979V260.46Z" transform="translate(-151.672 -257.179)" fill="#c4c4c4"/>
              </g>
            </g>
          </g>
        </g>
        <g id="Group_24" data-name="Group 24">
          <path id="Path_20" data-name="Path 20" d="M304.525,129.1V98.995H301.8V60.453a23.758,23.758,0,0,0-23.758-23.758H150.431a23.758,23.758,0,0,0-23.758,23.758v259.3a23.758,23.758,0,0,0,23.758,23.758H278.043A23.758,23.758,0,0,0,301.8,319.751V154.759h2.724v-17.79H301.8V129.1ZM294.337,302.779a23.761,23.761,0,0,1-23.76,23.76H157.9a23.761,23.761,0,0,1-23.76-23.76V65.88A23.759,23.759,0,0,1,157.9,42.128h47.115l.047.171c1.394,5.014,4.6,8.275,8.159,8.275h2.04c3.558,0,6.765-3.262,8.159-8.275l.054-.171h47.107a23.759,23.759,0,0,1,23.76,23.752Z" transform="translate(-126.673 -36.695)" fill="#707070" stroke="#263238" stroke-linejoin="round" stroke-width="1"/>
          <path id="Path_21" data-name="Path 21" d="M276.075,40.9H153.964a23.758,23.758,0,0,0-23.758,23.758V317.409a23.758,23.758,0,0,0,23.758,23.758H276.075a23.758,23.758,0,0,0,23.758-23.758V64.657A23.758,23.758,0,0,0,276.075,40.9ZM295.12,303.71a23.761,23.761,0,0,1-23.76,23.76H158.679a23.761,23.761,0,0,1-23.76-23.76V66.812a23.759,23.759,0,0,1,23.76-23.752h47.115l.047.171c1.394,5.014,4.6,8.275,8.159,8.275h2.04c3.558,0,6.765-3.262,8.159-8.275l.054-.171H271.36a23.759,23.759,0,0,1,23.76,23.752Z" transform="translate(-127.456 -37.626)" fill="#263238" stroke="#263238" stroke-linejoin="round" stroke-width="1"/>
          <circle id="Ellipse_4" data-name="Ellipse 4" cx="2.23" cy="2.23" r="2.23" transform="translate(84.844 4.339)" fill="#fff"/>
          <g id="Group_23" data-name="Group 23" transform="translate(18.335 12.307)">
            <g id="Group_13" data-name="Group 13" transform="translate(0 0.916)">
              <path id="Path_22" data-name="Path 22" d="M153.592,55.573c0,2.257-2.534,3.069-2.545,4.791v.118h2.46v.759h-3.283V60.6c0-2.416,2.535-2.887,2.535-4.994,0-.77-.258-1.176-.877-1.176s-.877.438-.877,1.1v.663h-.781v-.609c0-1.144.524-1.9,1.678-1.9S153.592,54.429,153.592,55.573Z" transform="translate(-150.224 -53.68)" fill="#263238"/>
              <path id="Path_23" data-name="Path 23" d="M158.855,55.562v.192a1.488,1.488,0,0,1-.909,1.541,1.487,1.487,0,0,1,.909,1.55v.578c0,1.144-.535,1.893-1.689,1.893s-1.678-.749-1.678-1.893V58.91h.78v.567c0,.673.278,1.08.877,1.08s.877-.4.877-1.155v-.578c0-.738-.31-1.091-.941-1.112h-.449v-.749h.492a.9.9,0,0,0,.9-1.026v-.343c0-.77-.268-1.165-.877-1.165s-.877.417-.877,1.091V55.9h-.78v-.343c0-1.144.534-1.882,1.678-1.882S158.855,54.418,158.855,55.562Z" transform="translate(-151.39 -53.68)" fill="#263238"/>
              <path id="Path_24" data-name="Path 24" d="M161.661,56.826v1.038h-.8V56.826Zm0,4.075v1.037h-.8V60.9Z" transform="translate(-152.58 -54.377)" fill="#263238"/>
              <path id="Path_25" data-name="Path 25" d="M163.813,56.825a1.2,1.2,0,0,1,1.112-.62c.962,0,1.39.706,1.39,1.775v1.465c0,1.144-.545,1.893-1.689,1.893s-1.679-.749-1.679-1.893v-.5h.781V59.5c0,.673.278,1.08.877,1.08s.877-.406.877-1.08V58.043c0-.673-.278-1.08-.877-1.08a.807.807,0,0,0-.845.8v.171h-.78l.2-4.16h2.951v.748h-2.2Z" transform="translate(-153.042 -53.701)" fill="#263238"/>
              <path id="Path_26" data-name="Path 26" d="M171.648,55.552v.139h-.78V55.5c0-.674-.279-1.07-.888-1.07-.631,0-.909.406-.909,1.209v1.678a1.2,1.2,0,0,1,1.208-.8c.962,0,1.39.7,1.39,1.775v1.134c0,1.144-.568,1.893-1.711,1.893s-1.722-.749-1.722-1.893V55.605c0-1.187.535-1.925,1.722-1.925C171.114,53.68,171.648,54.408,171.648,55.552Zm-2.577,2.8v1.123c0,.673.278,1.08.887,1.08s.888-.406.888-1.08V58.354c0-.674-.289-1.081-.888-1.081S169.072,57.68,169.072,58.354Z" transform="translate(-154.214 -53.68)" fill="#263238"/>
            </g>
            <g id="Group_22" data-name="Group 22" transform="translate(97.043)">
              <rect id="Rectangle_4" data-name="Rectangle 4" width="2.114" height="5.284" transform="translate(0 3.117)" fill="#263238"/>
              <rect id="Rectangle_5" data-name="Rectangle 5" width="2.114" height="6.343" transform="translate(2.818 2.059)" fill="#263238"/>
              <rect id="Rectangle_6" data-name="Rectangle 6" width="2.114" height="7.094" transform="translate(5.636 1.307)" fill="#263238"/>
              <rect id="Rectangle_7" data-name="Rectangle 7" width="2.114" height="8.401" transform="translate(8.454)" fill="#263238"/>
              <g id="Group_17" data-name="Group 17" transform="translate(24.043 0.506)">
                <g id="Group_14" data-name="Group 14">
                  <path id="Path_27" data-name="Path 27" d="M318.442,60.9H305.76v-7.75h12.682Zm-11.977-.7h11.273V53.858H306.465Z" transform="translate(-305.76 -53.153)" fill="#263238"/>
                </g>
                <g id="Group_15" data-name="Group 15" transform="translate(1.761 1.472)">
                  <rect id="Rectangle_8" data-name="Rectangle 8" width="6.693" height="4.807" fill="#263238"/>
                </g>
                <g id="Group_16" data-name="Group 16" transform="translate(12.242 2.962)">
                  <rect id="Rectangle_9" data-name="Rectangle 9" width="1.595" height="1.826" fill="#263238"/>
                </g>
              </g>
              <g id="Group_18" data-name="Group 18" transform="translate(14.008 4.842)">
                <path id="Path_28" data-name="Path 28" d="M298.255,60.451a.472.472,0,0,1-.242-.067c-2.581-1.534-4.286-.11-4.358-.05a.473.473,0,0,1-.624-.712c.092-.08,2.273-1.949,5.466-.052a.474.474,0,0,1-.242.881Z" transform="translate(-292.871 -58.722)" fill="#263238"/>
              </g>
              <g id="Group_19" data-name="Group 19" transform="translate(13.053 2.964)">
                <path id="Path_29" data-name="Path 29" d="M298.938,58.325a.474.474,0,0,1-.242-.067c-3.731-2.219-6.24-.072-6.265-.051a.473.473,0,0,1-.625-.711c.03-.028,3.056-2.619,7.376-.052a.474.474,0,0,1-.243.881Z" transform="translate(-291.644 -56.31)" fill="#263238"/>
              </g>
              <g id="Group_20" data-name="Group 20" transform="translate(12.187 0.849)">
                <path id="Path_30" data-name="Path 30" d="M299.559,55.88a.477.477,0,0,1-.243-.067c-4.726-2.81-7.868-.164-8-.05a.474.474,0,0,1-.624-.712c.037-.033,3.77-3.227,9.109-.052a.474.474,0,0,1-.242.881Z" transform="translate(-290.531 -53.593)" fill="#263238"/>
              </g>
              <g id="Group_21" data-name="Group 21" transform="translate(15.591 6.176)">
                <circle id="Ellipse_5" data-name="Ellipse 5" cx="1.188" cy="1.188" r="1.188" fill="#263238"/>
              </g>
            </g>
          </g>
        </g>
      </g>
    </g>
    <g id="Plants" transform="translate(1324.628 354.386)">
      <g id="Group_26" data-name="Group 26" transform="translate(0)">
        <path id="Path_31" data-name="Path 31" d="M439.556,318.133c.038.023.779-2.845.8-3.032.3-2.157-.387-6.5-2.584-7.563a2.887,2.887,0,0,0-3.928,1.739c-.589,1.619.158,3.6,1.042,4.969C435.928,315.849,439.553,318.131,439.556,318.133Z" transform="translate(-392.55 -297.561)" fill="#263238"/>
        <path id="Path_32" data-name="Path 32" d="M384.558,317.963c1.75.764,6.032.669,6.035.668.044,0-.92-2.8-1-2.972-.94-1.965-3.91-5.21-6.328-4.884a2.887,2.887,0,0,0-2.317,3.618C381.349,316.068,383.067,317.312,384.558,317.963Z" transform="translate(-380.86 -298.334)" fill="#263238"/>
        <path id="Path_33" data-name="Path 33" d="M440.748,299.857c-2.425-.262-5.307,3.063-6.194,5.052-.076.172-.965,3-.92,3h.052c-.459.521-.945,1.085-1.464,1.712-.948,1.165-2.01,2.491-3.067,4.012a51.26,51.26,0,0,0-3.181,5.067,37.689,37.689,0,0,0-2.717,6.117c-.009.025-.014.052-.022.077.012-.714-.019-2.713-.039-2.866-.28-2.16-2.091-6.17-4.49-6.613a2.887,2.887,0,0,0-3.33,2.715c-.14,1.716,1.1,3.434,2.318,4.518,1.368,1.222,5.166,2.406,5.469,2.5a51.157,51.157,0,0,0-1.6,6.627c-.233,1.3-.427,2.627-.6,3.954-.009-.618-.022-1.171-.032-1.248-.279-2.16-2.09-6.17-4.489-6.613a2.886,2.886,0,0,0-3.33,2.715c-.141,1.716,1.1,3.434,2.318,4.518,1.231,1.1,4.449,2.174,5.3,2.447-.062.511-.131,1.019-.191,1.529-.293,2.448-.574,4.892-.923,7.281-.123.842-.275,1.667-.423,2.492-.009-.549-.02-1.011-.03-1.081-.28-2.16-2.09-6.17-4.49-6.613a2.886,2.886,0,0,0-3.329,2.715c-.141,1.716,1.1,3.434,2.317,4.518,1.175,1.049,4.136,2.068,5.151,2.4-.178.841-.354,1.683-.565,2.49-.156.548-.269,1.086-.455,1.628s-.347,1.074-.518,1.6c-.367,1.007-.738,2.049-1.12,3.023-.261.679-.522,1.321-.783,1.969.132-.836.356-2.48.36-2.619a11.212,11.212,0,0,0-1.5-5.453,3.368,3.368,0,0,0-.04-.638,2.886,2.886,0,0,0-3.53-2.449c-2.357.627-3.852,4.765-3.963,6.94-.007.128.077,1.529.145,2.411-.119-.512-.228-1.011-.357-1.538-.248-1.043-.525-2.076-.819-3.189l-.488-1.613c-.151-.542-.38-1.1-.569-1.649-.466-1.274-1-2.543-1.568-3.81.912-.219,4.142-1.042,5.438-2.037s2.66-2.61,2.648-4.332A2.886,2.886,0,0,0,408,338.563c-2.425.263-4.529,4.126-4.97,6.26-.027.133-.171,1.7-.233,2.561-.347-.759-.689-1.518-1.065-2.274-1.084-2.183-2.248-4.359-3.4-6.535-.353-.666-.7-1.334-1.045-2,.325-.075,4.184-.97,5.637-2.084,1.291-.99,2.659-2.611,2.647-4.332a2.886,2.886,0,0,0-3.117-2.956c-2.426.264-4.53,4.127-4.97,6.26-.033.161-.237,2.415-.261,2.99-.764-1.47-1.511-2.943-2.189-4.423a50.829,50.829,0,0,1-2.381-6.149c.152-.034,4.184-.951,5.671-2.092,1.292-.99,2.66-2.61,2.648-4.332a2.886,2.886,0,0,0-3.118-2.955c-2.425.263-4.529,4.126-4.969,6.259-.03.141-.186,1.858-.241,2.676l-.139.015a37.227,37.227,0,0,1-1.241-6.515c-.135-1.211-.2-2.377-.234-3.512.768-.094,4.276-.56,5.728-1.44,1.391-.842,2.93-2.3,3.107-4.016a2.887,2.887,0,0,0-2.775-3.28c-2.439,0-4.955,3.6-5.627,5.676-.037.113-.281,1.3-.447,2.166-.008-.512-.026-1.041-.023-1.533,0-1.844.12-3.534.235-5.028.072-.849.155-1.616.24-2.333.706-.485,3.527-2.476,4.395-3.9.847-1.389,1.54-3.393.908-5a2.888,2.888,0,0,0-3.974-1.633c-2.167,1.12-2.736,5.482-2.378,7.631.031.186.849,3.034.887,3.009l.043-.029c-.1.687-.19,1.426-.276,2.235-.149,1.5-.3,3.187-.346,5.038a51.3,51.3,0,0,0,.142,5.981,37.63,37.63,0,0,0,1.108,6.6c.007.026.018.051.025.076-.384-.6-1.513-2.252-1.615-2.37-1.425-1.647-5.147-3.992-7.393-3.039a2.887,2.887,0,0,0-1.279,4.1c.83,1.509,2.815,2.255,4.425,2.49,1.816.265,5.637-.843,5.941-.933a51.127,51.127,0,0,0,2.318,6.413c.525,1.217,1.093,2.427,1.677,3.632-.349-.511-.664-.965-.715-1.024-1.425-1.647-5.147-3.992-7.393-3.038a2.886,2.886,0,0,0-1.279,4.1c.829,1.509,2.815,2.255,4.425,2.49,1.633.238,4.91-.641,5.774-.886.229.46.452.923.683,1.381,1.107,2.2,2.22,4.4,3.247,6.583.362.77.69,1.541,1.021,2.312-.31-.453-.575-.832-.621-.886-1.425-1.647-5.147-3.993-7.393-3.039a2.887,2.887,0,0,0-1.279,4.1c.83,1.509,2.815,2.255,4.425,2.49,1.559.227,4.591-.557,5.619-.842.315.8.633,1.6.9,2.389.172.543.375,1.053.517,1.608l.453,1.622c.25,1.042.515,2.117.733,3.14.158.71.294,1.39.434,2.074-.352-.771-1.072-2.265-1.146-2.383-1.159-1.844-4.483-4.726-6.847-4.123a2.886,2.886,0,0,0-1.886,3.86c.592,1.617,2.441,2.655,4,3.131,1.713.524,5.506.045,5.979-.018.227,1.133.438,2.237.619,3.283.639,3.622,1.033,6.663,1.279,8.792.044.378.081.715.114,1.034H400.4l2.24,43.708h13.391l2.24-43.708h-6.84c.051-.105.1-.2.152-.314.939-1.955,2.241-4.764,3.646-8.2.447-1.086.9-2.255,1.359-3.459.459.1,4.213.859,5.963.464,1.587-.359,3.509-1.257,4.219-2.825a2.886,2.886,0,0,0-1.593-3.99c-2.312-.777-5.842,1.849-7.135,3.6-.076.1-.779,1.317-1.21,2.091.185-.494.368-.97.551-1.48.369-1.006.708-2.02,1.077-3.111q.238-.8.483-1.615c.173-.536.287-1.123.434-1.689.315-1.32.569-2.673.795-4.043.881.321,4.029,1.415,5.659,1.3s3.659-.71,4.6-2.153a2.886,2.886,0,0,0-.97-4.184c-2.168-1.118-6.054.943-7.6,2.48-.1.1-1.08,1.323-1.608,2.007.13-.824.263-1.646.367-2.483.3-2.419.529-4.877.768-7.327.073-.751.155-1.5.234-2.246.312.118,4.025,1.5,5.851,1.371,1.622-.114,3.658-.71,4.6-2.153a2.886,2.886,0,0,0-.97-4.184c-2.168-1.118-6.054.943-7.6,2.48-.117.116-1.53,1.883-1.867,2.35.174-1.647.363-3.288.614-4.9a50.937,50.937,0,0,1,1.406-6.442c.146.055,4.014,1.515,5.885,1.384,1.622-.114,3.658-.711,4.6-2.153a2.887,2.887,0,0,0-.97-4.185c-2.168-1.118-6.054.943-7.6,2.48-.1.1-1.179,1.446-1.677,2.1l-.124-.064a37.182,37.182,0,0,1,2.558-6.117c.555-1.085,1.146-2.092,1.743-3.058.693.346,3.875,1.891,5.572,1.959,1.625.065,3.714-.3,4.807-1.635a2.887,2.887,0,0,0-.505-4.266c-2.032-1.35-6.121.272-7.825,1.63-.092.073-.951.929-1.567,1.56.276-.432.553-.883.825-1.292,1.021-1.536,2.05-2.88,2.971-4.064.529-.669,1.021-1.263,1.487-1.814.856-.015,4.308-.12,5.817-.828,1.473-.691,3.157-1.981,3.513-3.666A2.887,2.887,0,0,0,440.748,299.857Zm-26.854,65.161c-1.466,3.373-2.815,6.128-3.784,8.039-.2.385-.371.726-.534,1.04h-.163c-.047-.373-.1-.781-.163-1.239-.3-2.149-.761-5.21-1.485-8.853-.226-1.151-.49-2.378-.774-3.634a31.258,31.258,0,0,0,3.335-1.569,21.118,21.118,0,0,0,4.863,3.136C414.753,363.008,414.319,364.045,413.894,365.017Z" transform="translate(-380.963 -294.801)" fill="#263238"/>
        <path id="Path_34" data-name="Path 34" d="M384.558,317.963c1.75.764,6.032.669,6.035.668.044,0-.92-2.8-1-2.972-.94-1.965-3.91-5.21-6.328-4.884a2.887,2.887,0,0,0-2.317,3.618C381.349,316.068,383.067,317.312,384.558,317.963Z" transform="translate(-380.86 -298.334)" fill="#263238" opacity="0.3"/>
        <path id="Path_35" data-name="Path 35" d="M439.556,318.133c.038.023.779-2.845.8-3.032.3-2.157-.387-6.5-2.584-7.563a2.887,2.887,0,0,0-3.928,1.739c-.589,1.619.158,3.6,1.042,4.969C435.928,315.849,439.553,318.131,439.556,318.133Z" transform="translate(-392.55 -297.561)" fill="#263238" opacity="0.3"/>
        <path id="Path_36" data-name="Path 36" d="M440.748,299.857c-2.425-.262-5.307,3.063-6.194,5.052-.076.172-.965,3-.92,3h.052c-.459.521-.945,1.085-1.464,1.712-.948,1.165-2.01,2.491-3.067,4.012a51.26,51.26,0,0,0-3.181,5.067,37.689,37.689,0,0,0-2.717,6.117c-.009.025-.014.052-.022.077.012-.714-.019-2.713-.039-2.866-.28-2.16-2.091-6.17-4.49-6.613a2.887,2.887,0,0,0-3.33,2.715c-.14,1.716,1.1,3.434,2.318,4.518,1.368,1.222,5.166,2.406,5.469,2.5a51.157,51.157,0,0,0-1.6,6.627c-.233,1.3-.427,2.627-.6,3.954-.009-.618-.022-1.171-.032-1.248-.279-2.16-2.09-6.17-4.489-6.613a2.886,2.886,0,0,0-3.33,2.715c-.141,1.716,1.1,3.434,2.318,4.518,1.231,1.1,4.449,2.174,5.3,2.447-.062.511-.131,1.019-.191,1.529-.293,2.448-.574,4.892-.923,7.281-.123.842-.275,1.667-.423,2.492-.009-.549-.02-1.011-.03-1.081-.28-2.16-2.09-6.17-4.49-6.613a2.886,2.886,0,0,0-3.329,2.715c-.141,1.716,1.1,3.434,2.317,4.518,1.175,1.049,4.136,2.068,5.151,2.4-.178.841-.354,1.683-.565,2.49-.156.548-.269,1.086-.455,1.628s-.347,1.074-.518,1.6c-.367,1.007-.738,2.049-1.12,3.023-.261.679-.522,1.321-.783,1.969.132-.836.356-2.48.36-2.619a11.212,11.212,0,0,0-1.5-5.453,3.368,3.368,0,0,0-.04-.638,2.886,2.886,0,0,0-3.53-2.449c-2.357.627-3.852,4.765-3.963,6.94-.007.128.077,1.529.145,2.411-.119-.512-.228-1.011-.357-1.538-.248-1.043-.525-2.076-.819-3.189l-.488-1.613c-.151-.542-.38-1.1-.569-1.649-.466-1.274-1-2.543-1.568-3.81.912-.219,4.142-1.042,5.438-2.037s2.66-2.61,2.648-4.332A2.886,2.886,0,0,0,408,338.563c-2.425.263-4.529,4.126-4.97,6.26-.027.133-.171,1.7-.233,2.561-.347-.759-.689-1.518-1.065-2.274-1.084-2.183-2.248-4.359-3.4-6.535-.353-.666-.7-1.334-1.045-2,.325-.075,4.184-.97,5.637-2.084,1.291-.99,2.659-2.611,2.647-4.332a2.886,2.886,0,0,0-3.117-2.956c-2.426.264-4.53,4.127-4.97,6.26-.033.161-.237,2.415-.261,2.99-.764-1.47-1.511-2.943-2.189-4.423a50.829,50.829,0,0,1-2.381-6.149c.152-.034,4.184-.951,5.671-2.092,1.292-.99,2.66-2.61,2.648-4.332a2.886,2.886,0,0,0-3.118-2.955c-2.425.263-4.529,4.126-4.969,6.259-.03.141-.186,1.858-.241,2.676l-.139.015a37.227,37.227,0,0,1-1.241-6.515c-.135-1.211-.2-2.377-.234-3.512.768-.094,4.276-.56,5.728-1.44,1.391-.842,2.93-2.3,3.107-4.016a2.887,2.887,0,0,0-2.775-3.28c-2.439,0-4.955,3.6-5.627,5.676-.037.113-.281,1.3-.447,2.166-.008-.512-.026-1.041-.023-1.533,0-1.844.12-3.534.235-5.028.072-.849.155-1.616.24-2.333.706-.485,3.527-2.476,4.395-3.9.847-1.389,1.54-3.393.908-5a2.888,2.888,0,0,0-3.974-1.633c-2.167,1.12-2.736,5.482-2.378,7.631.031.186.849,3.034.887,3.009l.043-.029c-.1.687-.19,1.426-.276,2.235-.149,1.5-.3,3.187-.346,5.038a51.3,51.3,0,0,0,.142,5.981,37.63,37.63,0,0,0,1.108,6.6c.007.026.018.051.025.076-.384-.6-1.513-2.252-1.615-2.37-1.425-1.647-5.147-3.992-7.393-3.039a2.887,2.887,0,0,0-1.279,4.1c.83,1.509,2.815,2.255,4.425,2.49,1.816.265,5.637-.843,5.941-.933a51.127,51.127,0,0,0,2.318,6.413c.525,1.217,1.093,2.427,1.677,3.632-.349-.511-.664-.965-.715-1.024-1.425-1.647-5.147-3.992-7.393-3.038a2.886,2.886,0,0,0-1.279,4.1c.829,1.509,2.815,2.255,4.425,2.49,1.633.238,4.91-.641,5.774-.886.229.46.452.923.683,1.381,1.107,2.2,2.22,4.4,3.247,6.583.362.77.69,1.541,1.021,2.312-.31-.453-.575-.832-.621-.886-1.425-1.647-5.147-3.993-7.393-3.039a2.887,2.887,0,0,0-1.279,4.1c.83,1.509,2.815,2.255,4.425,2.49,1.559.227,4.591-.557,5.619-.842.315.8.633,1.6.9,2.389.172.543.375,1.053.517,1.608l.453,1.622c.25,1.042.515,2.117.733,3.14.158.71.294,1.39.434,2.074-.352-.771-1.072-2.265-1.146-2.383-1.159-1.844-4.483-4.726-6.847-4.123a2.886,2.886,0,0,0-1.886,3.86c.592,1.617,2.441,2.655,4,3.131,1.713.524,5.506.045,5.979-.018.227,1.133.438,2.237.619,3.283.639,3.622,1.033,6.663,1.279,8.792.044.378.081.715.114,1.034H400.4l2.24,43.708h13.391l2.24-43.708h-6.84c.051-.105.1-.2.152-.314.939-1.955,2.241-4.764,3.646-8.2.447-1.086.9-2.255,1.359-3.459.459.1,4.213.859,5.963.464,1.587-.359,3.509-1.257,4.219-2.825a2.886,2.886,0,0,0-1.593-3.99c-2.312-.777-5.842,1.849-7.135,3.6-.076.1-.779,1.317-1.21,2.091.185-.494.368-.97.551-1.48.369-1.006.708-2.02,1.077-3.111q.238-.8.483-1.615c.173-.536.287-1.123.434-1.689.315-1.32.569-2.673.795-4.043.881.321,4.029,1.415,5.659,1.3s3.659-.71,4.6-2.153a2.886,2.886,0,0,0-.97-4.184c-2.168-1.118-6.054.943-7.6,2.48-.1.1-1.08,1.323-1.608,2.007.13-.824.263-1.646.367-2.483.3-2.419.529-4.877.768-7.327.073-.751.155-1.5.234-2.246.312.118,4.025,1.5,5.851,1.371,1.622-.114,3.658-.71,4.6-2.153a2.886,2.886,0,0,0-.97-4.184c-2.168-1.118-6.054.943-7.6,2.48-.117.116-1.53,1.883-1.867,2.35.174-1.647.363-3.288.614-4.9a50.937,50.937,0,0,1,1.406-6.442c.146.055,4.014,1.515,5.885,1.384,1.622-.114,3.658-.711,4.6-2.153a2.887,2.887,0,0,0-.97-4.185c-2.168-1.118-6.054.943-7.6,2.48-.1.1-1.179,1.446-1.677,2.1l-.124-.064a37.182,37.182,0,0,1,2.558-6.117c.555-1.085,1.146-2.092,1.743-3.058.693.346,3.875,1.891,5.572,1.959,1.625.065,3.714-.3,4.807-1.635a2.887,2.887,0,0,0-.505-4.266c-2.032-1.35-6.121.272-7.825,1.63-.092.073-.951.929-1.567,1.56.276-.432.553-.883.825-1.292,1.021-1.536,2.05-2.88,2.971-4.064.529-.669,1.021-1.263,1.487-1.814.856-.015,4.308-.12,5.817-.828,1.473-.691,3.157-1.981,3.513-3.666A2.887,2.887,0,0,0,440.748,299.857Zm-26.854,65.161c-1.466,3.373-2.815,6.128-3.784,8.039-.2.385-.371.726-.534,1.04h-.163c-.047-.373-.1-.781-.163-1.239-.3-2.149-.761-5.21-1.485-8.853-.226-1.151-.49-2.378-.774-3.634a31.258,31.258,0,0,0,3.335-1.569,21.118,21.118,0,0,0,4.863,3.136C414.753,363.008,414.319,364.045,413.894,365.017Z" transform="translate(-380.963 -294.801)" fill="#263238" opacity="0.3"/>
      </g>
    </g>
    <g id="Floor" transform="translate(1066.365 477.39)">
      <g id="Group_27" data-name="Group 27" transform="translate(0)">
        <line id="Line_1" data-name="Line 1" x2="65.971" transform="translate(263.042)" fill="none" stroke="#263238" stroke-linejoin="round" stroke-width="1"/>
        <line id="Line_2" data-name="Line 2" x2="225.766" transform="translate(30.27)" fill="none" stroke="#263238" stroke-linejoin="round" stroke-width="1"/>
        <line id="Line_3" data-name="Line 3" x2="23.263" fill="none" stroke="#263238" stroke-linejoin="round" stroke-width="1"/>
      </g>
    </g>
    <g id="Character" transform="translate(1250.682 269.684)">
      <g id="Group_42" data-name="Group 42" transform="translate(0)">
        <g id="Group_29" data-name="Group 29" transform="translate(7.233 195.086)">
          <g id="Group_28" data-name="Group 28">
            <path id="Path_37" data-name="Path 37" d="M322.523,446.641a9.455,9.455,0,0,1-.262,1.7c-.641,2.344-4.272,1.492-6.406,2.344s-4.912,1.921-6.834,2.562a30.035,30.035,0,0,1-10.889.429c-1.973-.423-2.927-1.5-2.965-2.613a2.382,2.382,0,0,1,.621-1.659c1.281-1.492,6.188-3.414,8.967-5.547s6.406-7.263,6.406-7.263c4.054,1.07,10.888.218,10.888.218s.423,2.344.423,2.985A61.554,61.554,0,0,1,322.523,446.641Z" transform="translate(-295.165 -436.591)" fill="#fff" stroke="#263238" stroke-linecap="round" stroke-linejoin="round" stroke-width="1"/>
            <path id="Path_38" data-name="Path 38" d="M322.524,449.5a9.455,9.455,0,0,1-.262,1.7c-.641,2.344-4.272,1.492-6.406,2.344s-4.912,1.921-6.834,2.562a30.035,30.035,0,0,1-10.889.429c-1.973-.423-2.927-1.5-2.965-2.613,1.089.8,3.747,2.191,8.794,1.749,6.969-.6,9.4-3.029,12.279-4.24A44.981,44.981,0,0,1,322.524,449.5Z" transform="translate(-295.166 -439.45)" fill="#fff" stroke="#263238" stroke-linecap="round" stroke-linejoin="round" stroke-width="1"/>
          </g>
          <path id="Path_39" data-name="Path 39" d="M327.995,437.932c-.095-.584-.182-1.063-.182-1.063a49.283,49.283,0,0,1-6.465.311l-.154.116s.427-.213.641,1.495a15.724,15.724,0,0,1,0,3.416s4.859-1.155,5.551-2.776C327.587,438.959,327.8,438.437,327.995,437.932Z" transform="translate(-300.931 -436.653)" fill="#fff" stroke="#263238" stroke-linecap="round" stroke-linejoin="round" stroke-width="1"/>
        </g>
        <g id="Group_31" data-name="Group 31" transform="translate(34.364 200.044)">
          <g id="Group_30" data-name="Group 30">
            <path id="Path_40" data-name="Path 40" d="M354.109,456.929c-1.967,1.242-11.587,6.623-13.246,6.93s-7.756-.1-9.518-1.55c-1.364-1.127-1.729-2.627-.852-3.875a3.689,3.689,0,0,1,1.063-.986A41.332,41.332,0,0,0,338.9,450.1c1.652-2.171,4.24-6,4.24-6l.2-1.14,10.556.314s.206,2.273.307,2.69a31.876,31.876,0,0,1,.833,4.445c.121.884.262,1.71.346,2.459C355.594,454.668,355.492,456.051,354.109,456.929Z" transform="translate(-330.017 -442.96)" fill="#fff" stroke="#263238" stroke-linecap="round" stroke-linejoin="round" stroke-width="1"/>
            <path id="Path_41" data-name="Path 41" d="M354.109,459.748c-1.967,1.242-11.587,6.623-13.246,6.93s-7.756-.1-9.518-1.55c-1.364-1.127-1.729-2.627-.852-3.875.135.724,1.134,4.394,7.558,4.125,7.13-.3,12.734-6.667,15.917-8.794.506-.339.979-.634,1.422-.9C355.594,457.487,355.492,458.87,354.109,459.748Z" transform="translate(-330.017 -445.779)" fill="#fff" stroke="#263238" stroke-linecap="round" stroke-linejoin="round" stroke-width="1"/>
          </g>
          <path id="Path_42" data-name="Path 42" d="M357.5,443.272l-10.553-.311-.207,1.138s-.189.279-.492.723c.258-.014,3.427-.172,4.321.622.931.828,1.035,3.518,3.207,2.793a12.515,12.515,0,0,0,4.012-2.389C357.676,445.241,357.5,443.272,357.5,443.272Z" transform="translate(-333.611 -442.96)" fill="#fff" stroke="#263238" stroke-linecap="round" stroke-linejoin="round" stroke-width="1"/>
        </g>
        <g id="Group_32" data-name="Group 32" transform="translate(15.113 93.461)">
          <path id="Path_43" data-name="Path 43" d="M305.5,309.682s-.854,22.418.854,36.082,2.135,23.485,2.349,24.125,4.27,27.756,4.483,29.464.854,3.629.854,4.27.64.854,3.843,1.708a11.422,11.422,0,0,0,6.406-.427s1.494-14.732,1.494-18.574-1.921-21.35-1.921-21.991,1.281-29.891,1.281-29.891l1.067.854s1.495,24.98,2.135,29.677.854,8.967,1.708,11.316,2.776,17.294,3.63,19.428,1.494,10.248,1.494,10.248l.641,2.562s.854,2.349,6.191,2.349,6.406-1.281,6.406-1.281.213-11.316.213-16.654-2.775-21.136-3.2-24.766-1.067-18.362-.213-21.35,2.349-20.5,2.349-27.969a85.65,85.65,0,0,0-.427-10.462s-20.282,1.281-27.115.214-13.238-2.563-13.238-2.563Z" transform="translate(-305.288 -306.052)" fill="#263238" stroke="#263238" stroke-linecap="round" stroke-linejoin="round" stroke-width="1"/>
        </g>
        <g id="Group_34" data-name="Group 34" transform="translate(21.518 85.989)">
          <g id="Group_33" data-name="Group 33">
            <path id="Path_44" data-name="Path 44" d="M313.515,306.7s9.181,2.775,23.913,1.495l.213-3.843-23.485-7.9Z" transform="translate(-313.515 -296.454)" fill="gray" stroke="#263238" stroke-linecap="round" stroke-linejoin="round" stroke-width="1"/>
          </g>
          <rect id="Rectangle_10" data-name="Rectangle 10" width="6.064" height="2.394" transform="translate(6.386 9.325) rotate(2.14)" fill="#fff" stroke="#263238" stroke-linecap="round" stroke-linejoin="round" stroke-width="1"/>
        </g>
        <path id="Path_45" data-name="Path 45" d="M338.711,228.623s-7.473-.854-11.1.213-8.113,2.349-9.394,5.765-7.58,54.122-7.58,54.122a50.3,50.3,0,0,0,13.131,2.242c6.191,0,12.809-.427,12.809-.427s.641-27.328,2.135-32.239S338.711,228.623,338.711,228.623Z" transform="translate(-291.359 -195.369)" fill="#fca9ad" stroke="#263238" stroke-linecap="round" stroke-linejoin="round" stroke-width="1"/>
        <path id="Path_46" data-name="Path 46" d="M324.923,230.031s.258,5.306,1.812,6.6,1.682,1.682,1.682,1.682l.906,10.094s3.365-6.082,3.752-6.859a25.344,25.344,0,0,0,.777-4.271,38.243,38.243,0,0,0,3.235-2.718c1.165-1.165,2.071-8.929,2.071-9.835s-.258-5.824-.258-5.824-2.718,6.082-5.694,8.8-5.824,2.976-6.471,2.847S324.923,230.031,324.923,230.031Z" transform="translate(-294.524 -193.287)" fill="#fff" stroke="#263238" stroke-linecap="round" stroke-linejoin="round" stroke-width="1"/>
        <g id="Group_35" data-name="Group 35" transform="translate(0 33.88)">
          <path id="Path_47" data-name="Path 47" d="M316.145,230.829s-.259,18.765-.259,26.4-2.329,17.212-4.788,23.683-7.765,23.875-9.447,27.887a64.545,64.545,0,0,0-2.718,8.153s-2.459-1.941-2.589-8.283,1.424-13.717,1.682-18.247.388-14.04.388-14.04,0,2.2-3.365,3.882-5.436,2.459-7.636-1.682-1.941-6.6.13-10.353,4.012-13.459,5.694-17.859,1.552-10.612,3.365-11.906,10.482-4.789,13.976-6.859,4.917-2.071,4.917-2.071S316.015,229.277,316.145,230.829Z" transform="translate(-285.875 -229.519)" fill="#fff" stroke="#263238" stroke-linecap="round" stroke-linejoin="round" stroke-width="1"/>
          <path id="Path_48" data-name="Path 48" d="M292.283,276.7s-2.585,5.356-1.847,7.2,3.141,3.879,5.91,2.216,3.694-1.847,2.771-5.356S294.684,274.673,292.283,276.7Z" transform="translate(-286.856 -239.812)" fill="none" stroke="#263238" stroke-linecap="round" stroke-linejoin="round" stroke-width="1"/>
          <path id="Path_49" data-name="Path 49" d="M303.787,252.823c-.081-1.8-.142-3-.142-3" transform="translate(-289.811 -234.016)" fill="#fff" stroke="#263238" stroke-linecap="round" stroke-linejoin="round" stroke-width="1"/>
          <path id="Path_50" data-name="Path 50" d="M301.983,282.258s1.812-9.836,1.812-15.4c0-3.046-.155-7.451-.3-10.813" transform="translate(-289.443 -235.394)" fill="#fff" stroke="#263238" stroke-linecap="round" stroke-linejoin="round" stroke-width="1"/>
          <path id="Path_51" data-name="Path 51" d="M322.487,229.535s-1.125,0-3.821,1.452a71.618,71.618,0,0,0-.967,18.607,67.511,67.511,0,0,0,4.375,16.369,54.4,54.4,0,0,0,.8-8.734c0-7.635.259-26.4.259-26.4C323.005,229.277,322.487,229.535,322.487,229.535Z" transform="translate(-292.865 -229.519)" fill="#fff" stroke="#263238" stroke-linecap="round" stroke-linejoin="round" stroke-width="1"/>
        </g>
        <g id="Group_37" data-name="Group 37" transform="translate(21.889 9.41)">
          <path id="Path_52" data-name="Path 52" d="M314,205.846a76.089,76.089,0,0,0,2.144,9.781c1.072,2.948,3.618,6.163,4.69,8.174s3.35,4.154,5.9,4.154,6.029-3.485,6.7-4.69,2.546-3.349,2.68-4.689.134-3.484.134-3.484a4.6,4.6,0,0,0,3.082-3.752,7.946,7.946,0,0,0-.4-4.824,25.876,25.876,0,0,0-2.278-4.288c-1.876-3.081-8.04-4.824-13.935-3.886S313.862,201.826,314,205.846Z" transform="translate(-313.991 -198.088)" fill="#fff" stroke="#263238" stroke-linecap="round" stroke-linejoin="round" stroke-width="1"/>
          <g id="Group_36" data-name="Group 36" transform="translate(0.167 10.571)">
            <path id="Path_53" data-name="Path 53" d="M314.207,214.885a19.31,19.31,0,0,1,7.742.1,4.644,4.644,0,0,1-.8,4.02c-1.474,1.608-4.153,1.072-4.957.8S314.163,218.128,314.207,214.885Z" transform="translate(-314.206 -212.303)" fill="#fff" stroke="#263238" stroke-linecap="round" stroke-linejoin="round" stroke-width="1"/>
            <path id="Path_54" data-name="Path 54" d="M327.591,214.733a19.309,19.309,0,0,1,7.742-.013,4.644,4.644,0,0,1-.746,4.03c-1.45,1.629-4.138,1.132-4.946.876S327.593,217.975,327.591,214.733Z" transform="translate(-317.17 -212.257)" fill="#fff" stroke="#263238" stroke-linecap="round" stroke-linejoin="round" stroke-width="1"/>
            <path id="Path_55" data-name="Path 55" d="M324.152,215.007a3.718,3.718,0,0,1,2.677-.2" transform="translate(-316.409 -212.328)" fill="none" stroke="#263238" stroke-linecap="round" stroke-linejoin="round" stroke-width="1"/>
            <line id="Line_4" data-name="Line 4" y1="2.462" x2="3.649" transform="translate(18.163)" fill="none" stroke="#263238" stroke-linecap="round" stroke-linejoin="round" stroke-width="1"/>
            <path id="Path_56" data-name="Path 56" d="M324.416,216.474a3.071,3.071,0,0,1,2.322,0" transform="translate(-316.467 -212.677)" fill="none" stroke="#263238" stroke-linecap="round" stroke-linejoin="round" stroke-width="1"/>
          </g>
          <path id="Path_57" data-name="Path 57" d="M328.53,213.472a8.4,8.4,0,0,1,4.884-.48" transform="translate(-317.212 -201.345)" fill="none" stroke="#263238" stroke-linecap="round" stroke-linejoin="round" stroke-width="1"/>
          <path id="Path_58" data-name="Path 58" d="M321.849,213.958a5.822,5.822,0,0,0-4.323-.561" transform="translate(-314.774 -201.43)" fill="none" stroke="#263238" stroke-linecap="round" stroke-linejoin="round" stroke-width="1"/>
          <path id="Path_59" data-name="Path 59" d="M324.387,218.293s-.16,5.845-.079,6.085a2.758,2.758,0,0,0,1.681.8,13.618,13.618,0,0,0,2.082-.4" transform="translate(-316.271 -202.563)" fill="none" stroke="#263238" stroke-linecap="round" stroke-linejoin="round" stroke-width="1"/>
          <path id="Path_60" data-name="Path 60" d="M325.239,228.989s1.6,1.361,4.564.16" transform="translate(-316.483 -204.932)" fill="none" stroke="#263238" stroke-linecap="round" stroke-linejoin="round" stroke-width="1"/>
        </g>
        <path id="Path_61" data-name="Path 61" d="M309.842,196.736s-4.422,1.34-3.618,4.154,5.9,3.752,10.987,2.412a67.82,67.82,0,0,0,10.585-4.02,2.012,2.012,0,0,0,.269,2.814c1.474,1.34,1.34-2.814,1.34-2.814s-.134,4.824,1.742,5.494,2.01,1.072,2.01,1.072-.67,2.68.134,2.947.938-2.814.938-2.814.268-1.608,1.608-1.876l1.341-.268s-.269-8.977-1.072-12.327-8.978-7.236-16.079-4.69S309.574,192.851,309.842,196.736Z" transform="translate(-290.361 -186)" fill="#263238" stroke="#263238" stroke-linecap="round" stroke-linejoin="round" stroke-width="1"/>
        <g id="Group_38" data-name="Group 38" transform="translate(2.446 64.049)">
          <path id="Path_62" data-name="Path 62" d="M291.178,280.171l3.105-4.917,2.589,4.141a31.452,31.452,0,0,1-3.623,1.812A10.188,10.188,0,0,1,291.178,280.171Z" transform="translate(-289.496 -269.818)" fill="#fff" stroke="#263238" stroke-linecap="round" stroke-linejoin="round" stroke-width="1"/>
          <path id="Path_63" data-name="Path 63" d="M299.323,284.122a15.467,15.467,0,0,0,2.329.776,5.552,5.552,0,0,0,4.012-2.07c.776-1.295-.518-1.424-.518-1.424l-1.553,1.424-2.589-.13Z" transform="translate(-291.3 -271.181)" fill="#fff" stroke="#263238" stroke-linecap="round" stroke-linejoin="round" stroke-width="1"/>
          <path id="Path_64" data-name="Path 64" d="M289.017,268.272l7.506,11.388,6.341.129-6.729-11.518Z" transform="translate(-289.017 -268.272)" fill="#263238" stroke="#263238" stroke-linecap="round" stroke-linejoin="round" stroke-width="1"/>
          <path id="Path_65" data-name="Path 65" d="M297.26,277.741s-6.082,2.071-6.082,2.976a1.769,1.769,0,0,0,1.941,1.553c1.035,0,5.047-2.589,5.436-3.365S298.554,277.612,297.26,277.741Z" transform="translate(-289.496 -270.365)" fill="#fff" stroke="#263238" stroke-linecap="round" stroke-linejoin="round" stroke-width="1"/>
          <path id="Path_66" data-name="Path 66" d="M294.5,283.155a2.266,2.266,0,0,0,1.423,1.553c1.165.388,4.659-2.071,5.306-2.976s-1.295-.647-2.718-.129S294.5,283.155,294.5,283.155Z" transform="translate(-290.232 -271.12)" fill="#fff" stroke="#263238" stroke-linecap="round" stroke-linejoin="round" stroke-width="1"/>
          <path id="Path_67" data-name="Path 67" d="M291.172,272.1a1.569,1.569,0,0,0-.258,2.2,5.03,5.03,0,0,0,3.105,1.553Z" transform="translate(-289.361 -269.119)" fill="#fff" stroke="#263238" stroke-linecap="round" stroke-linejoin="round" stroke-width="1"/>
        </g>
        <g id="Group_39" data-name="Group 39" transform="translate(38.177 31.438)">
          <path id="Path_68" data-name="Path 68" d="M341.371,226.382s-5.047,33.776-6.212,36.752,2.2,25.817,2.2,28.923,2.976,3.623,4.141,4.27,10.612,5.177,12.036,7.506,5.047,7.247,5.047,7.247-2.168-21.966-2.459-33.841c-.117-4.786.259-11.906.259-11.906s5.436-28.211,4.918-30.282-9.189-5.436-12.941-6.729A60.255,60.255,0,0,0,341.371,226.382Z" transform="translate(-334.914 -226.382)" fill="#fff" stroke="#263238" stroke-linecap="round" stroke-linejoin="round" stroke-width="1"/>
          <path id="Path_69" data-name="Path 69" d="M347.713,230.781c.126-.882.252-1.823.348-2.559a60.266,60.266,0,0,0-6.689-1.84s-5.047,33.776-6.212,36.752a7.8,7.8,0,0,0-.236,2.634c.687-.968,3.587-5.112,6.189-9.752C344.089,250.711,347.454,232.594,347.713,230.781Z" transform="translate(-334.915 -226.382)" fill="#fff" stroke="#263238" stroke-linecap="round" stroke-linejoin="round" stroke-width="1"/>
        </g>
        <path id="Path_70" data-name="Path 70" d="M338.886,313.735a38.372,38.372,0,0,0,7.506,1.553c4.53.518,15.243,4.788,19.062,9.475a26.879,26.879,0,0,1,3.235,4.529s-5.344.748-6.38.877-3.365.259-3.365.259-4.142-5.953-6.212-7.636S339.663,315.676,338.886,313.735Z" transform="translate(-297.617 -214.293)" fill="#fff" stroke="#263238" stroke-linecap="round" stroke-linejoin="round" stroke-width="1"/>
        <path id="Path_71" data-name="Path 71" d="M314.338,430.923v3.691a1.534,1.534,0,0,0,.944,1.423,21.341,21.341,0,0,0,5.035,1.236,10.033,10.033,0,0,0,6.243-.98,1.537,1.537,0,0,0,.8-1.355v-3.348a1.3,1.3,0,0,0-1.511-1.289c-2.339.384-6.925.894-10.344-.236A.9.9,0,0,0,314.338,430.923Z" transform="translate(-292.179 -240.049)" fill="gray" stroke="#263238" stroke-linecap="round" stroke-linejoin="round" stroke-width="1"/>
        <path id="Path_72" data-name="Path 72" d="M342.953,435.928v4.165a1.73,1.73,0,0,0,1.065,1.606,24.072,24.072,0,0,0,5.681,1.4,11.328,11.328,0,0,0,7.046-1.106,1.735,1.735,0,0,0,.905-1.53V436.68a1.469,1.469,0,0,0-1.7-1.455c-2.641.433-7.815,1.009-11.674-.266A1.011,1.011,0,0,0,342.953,435.928Z" transform="translate(-298.518 -241.132)" fill="gray" stroke="#263238" stroke-linecap="round" stroke-linejoin="round" stroke-width="1"/>
        <g id="Group_41" data-name="Group 41" transform="translate(48.98 38.296)">
          <g id="Group_40" data-name="Group 40">
            <path id="Path_73" data-name="Path 73" d="M353,318.291l-4.211,3.874,6.232,6.064,2.358-3.874Z" transform="translate(-348.79 -253.598)" fill="#fff" stroke="#263238" stroke-linecap="round" stroke-linejoin="round" stroke-width="1"/>
            <path id="Path_74" data-name="Path 74" d="M359.672,253.18s-.906,7.636-.518,10.353,6.464,17.833,6.464,17.833l-12.935,18.725s1.553,6.6,5.953,8.67c0,0,12.72-12.388,15.141-15.012,5.183-5.617,7.17-10.5,7.17-12.573S368.213,241.4,367.953,240.5s-1.552-4.4-4.788-5.305" transform="translate(-349.653 -235.192)" fill="#fff" stroke="#263238" stroke-linecap="round" stroke-linejoin="round" stroke-width="1"/>
          </g>
          <path id="Path_75" data-name="Path 75" d="M370.9,294.109a9.493,9.493,0,0,1,7.573-.739" transform="translate(-353.687 -247.966)" fill="none" stroke="#263238" stroke-linecap="round" stroke-linejoin="round" stroke-width="1"/>
          <path id="Path_76" data-name="Path 76" d="M376.591,291.351a6.422,6.422,0,0,1,4.617.923" transform="translate(-354.948 -247.608)" fill="none" stroke="#263238" stroke-linecap="round" stroke-linejoin="round" stroke-width="1"/>
        </g>
      </g>
    </g>
    <g id="Location_3" data-name="Location 3" transform="translate(1254.105 187.166)">
      <g id="Group_50" data-name="Group 50" transform="translate(0 0)">
        <path id="Path_77" data-name="Path 77" d="M313.77,82.408A23.468,23.468,0,0,1,332.006,91.1h43.641a12.273,12.273,0,0,1,0,24.545h-40.5a23.593,23.593,0,0,1-7.776,9.433L314.3,135.2a.277.277,0,0,1-.167.057.268.268,0,0,1-.16-.052l-14.347-10.43h0a23.079,23.079,0,0,1-9.354-18.868A23.525,23.525,0,0,1,313.77,82.408Z" transform="translate(-290.272 -80.536)" fill="#263238"/>
        <g id="Group_49" data-name="Group 49" transform="translate(0.866)">
          <g id="Group_43" data-name="Group 43" transform="translate(28.506 8.694)">
            <path id="Rectangle_11" data-name="Rectangle 11" d="M12,0H68.6a0,0,0,0,1,0,0V24a0,0,0,0,1,0,0H12A12,12,0,0,1,0,12v0A12,12,0,0,1,12,0Z" transform="translate(68.597 24) rotate(-180)" fill="#fff" stroke="#263238" stroke-linecap="round" stroke-linejoin="round" stroke-width="1"/>
            <line id="Line_5" data-name="Line 5" x1="30.35" transform="translate(27.526 8.476)" fill="#92e3a9" stroke="#263238" stroke-linejoin="round" stroke-width="1"/>
            <line id="Line_6" data-name="Line 6" x1="30.35" transform="translate(27.526 12.304)" fill="#92e3a9" stroke="#263238" stroke-linejoin="round" stroke-width="1"/>
            <line id="Line_7" data-name="Line 7" x1="30.35" transform="translate(27.526 16.132)" fill="#92e3a9" stroke="#263238" stroke-linejoin="round" stroke-width="1"/>
          </g>
          <path id="Path_78" data-name="Path 78" d="M300.626,121.877l14.347,10.43,13.07-10.117.016-.011a23.23,23.23,0,1,0-36.675-18.948A22.774,22.774,0,0,0,300.626,121.877Z" transform="translate(-291.384 -80.004)" fill="#fff" stroke="#263238" stroke-linecap="round" stroke-linejoin="round" stroke-width="1"/>
          <g id="Group_48" data-name="Group 48" transform="translate(2.627 1.376)">
            <path id="Path_79" data-name="Path 79" d="M335.629,104.2a20.436,20.436,0,1,1-20.436-20.436A20.387,20.387,0,0,1,335.629,104.2Z" transform="translate(-294.758 -82.212)" fill="#fca9ad" stroke="#263238" stroke-linejoin="round" stroke-width="1"/>
            <path id="Path_80" data-name="Path 80" d="M331.451,126.974l-14.7-3.822-15.574,3.167q.3.347.616.68a20.441,20.441,0,0,0,29.658-.025Z" transform="translate(-296.18 -90.937)" fill="#fff" stroke="#263238" stroke-linecap="round" stroke-linejoin="round" stroke-width="1"/>
            <g id="Group_44" data-name="Group 44" transform="translate(10.934 30.349)">
              <path id="Path_81" data-name="Path 81" d="M315.812,121.85a11.911,11.911,0,0,0-3.324,2.643,31.971,31.971,0,0,0-3.666,6.053c.255-.171,7.076-4.348,7.076-4.348Z" transform="translate(-308.803 -120.998)" fill="#fca9ad" stroke="#263238" stroke-linecap="round" stroke-linejoin="round" stroke-width="1"/>
              <path id="Path_82" data-name="Path 82" d="M323.615,120.755l-5.371,5.882,1.534,5.371,6.309-8.014Z" transform="translate(-310.894 -120.755)" fill="#fca9ad" stroke="#263238" stroke-linecap="round" stroke-linejoin="round" stroke-width="1"/>
            </g>
            <g id="Group_47" data-name="Group 47" transform="translate(9.818)">
              <g id="Group_45" data-name="Group 45">
                <path id="Path_83" data-name="Path 83" d="M311.318,91.575s-3.5.682-3.922-2.387,4.348-7.417,11.168-7.417,12.191,5.712,11.935,11.253A19.361,19.361,0,0,1,327,103a11.519,11.519,0,0,1-4.347,2.216c-1.193.17-2.046-1.534-1.45-3.751s-1.278-2.814-.511-4.859,1.791-2.046,2.132-2.728-3.41-2.132-6.82-1.961A12.63,12.63,0,0,1,311.318,91.575Z" transform="translate(-307.369 -81.771)" fill="#263238" stroke="#263238" stroke-linecap="round" stroke-linejoin="round" stroke-width="1"/>
              </g>
              <path id="Path_84" data-name="Path 84" d="M316.989,116.536s-.022.121-.058.331c-.182,1.046-.737,4.332-.88,6.319-.171,2.387,1.534,2.3,2.216,1.619s4.263-4.262,4.859-5.8,1.961-6.138,1.961-6.138Z" transform="translate(-309.289 -88.66)" fill="#fff" stroke="#263238" stroke-linecap="round" stroke-linejoin="round" stroke-width="1"/>
              <g id="Group_46" data-name="Group 46" transform="translate(1.922 8.126)">
                <path id="Path_85" data-name="Path 85" d="M311.865,93.887s-1.193,6.65-1.62,10.145-.852,5.541.6,7.758,5.541.768,7.587-.085a57.833,57.833,0,0,0,6.223-3.58s2.9.17,4.092-1.279a2.192,2.192,0,0,0-.767-3.324,3.777,3.777,0,0,0-2.728,1.023c-.511.6-.427,1.278-1.023,1.278s-1.45.17-1.279-.426,1.45-2.557,1.109-3.836-2.9-2.132-.768-3.325,4.348-1.108,3.325-2.9-6.308-3.666-9.633-2.984A24.449,24.449,0,0,0,311.865,93.887Z" transform="translate(-309.838 -92.209)" fill="#fff" stroke="#263238" stroke-linecap="round" stroke-linejoin="round" stroke-width="1"/>
                <path id="Path_86" data-name="Path 86" d="M313.51,96.873s1.995-.424,1.875,1.62c-.047.807-3.58,4.518-3.069,5.371a4.48,4.48,0,0,0,1.364,1.364" transform="translate(-310.376 -93.234)" fill="none" stroke="#263238" stroke-linecap="round" stroke-linejoin="round" stroke-width="1"/>
                <path id="Path_87" data-name="Path 87" d="M319.339,99.468a2.354,2.354,0,0,1,3.581.767" transform="translate(-311.943 -93.697)" fill="none" stroke="#263238" stroke-linecap="round" stroke-linejoin="round" stroke-width="1"/>
                <path id="Path_88" data-name="Path 88" d="M312.988,110.79s.511,1.279,2.557,1.109a5.979,5.979,0,0,0,2.643-.6" transform="translate(-310.536 -96.324)" fill="none" stroke="#263238" stroke-linecap="round" stroke-linejoin="round" stroke-width="1"/>
                <path id="Path_89" data-name="Path 89" d="M320.534,102.894c-.12.562-.459.966-.756.9s-.442-.571-.322-1.133.459-.967.756-.9S320.654,102.331,320.534,102.894Z" transform="translate(-311.959 -94.323)" fill="#263238"/>
                <path id="Path_90" data-name="Path 90" d="M314.173,100.483c-.108.544-.429.939-.718.882s-.434-.545-.326-1.089.429-.939.717-.882S314.28,99.938,314.173,100.483Z" transform="translate(-310.559 -93.799)" fill="#263238"/>
              </g>
            </g>
          </g>
        </g>
      </g>
    </g>
    <g id="Location_2" data-name="Location 2" transform="translate(1101.108 227.665)">
      <g id="Group_54" data-name="Group 54" transform="translate(0 0)">
        <path id="Path_91" data-name="Path 91" d="M169.144,134.593a23.466,23.466,0,0,0-18.236,8.694H107.267a12.272,12.272,0,0,0,0,24.545h40.5a23.6,23.6,0,0,0,7.776,9.434l13.07,10.117a.273.273,0,0,0,.327,0l14.347-10.429h0a23.077,23.077,0,0,0,9.353-18.867A23.524,23.524,0,0,0,169.144,134.593Z" transform="translate(-94.022 -132.594)" fill="#263238"/>
        <g id="Group_53" data-name="Group 53">
          <g id="Group_51" data-name="Group 51" transform="translate(0 8.889)">
            <path id="Path_92" data-name="Path 92" d="M105.745,167.445h56.6v-24h-56.6a12,12,0,0,0-12,12h0A12,12,0,0,0,105.745,167.445Z" transform="translate(-93.745 -143.444)" fill="#fff" stroke="#263238" stroke-linecap="round" stroke-linejoin="round" stroke-width="1"/>
            <line id="Line_8" data-name="Line 8" x2="30.35" transform="translate(10.721 8.476)" fill="#92e3a9" stroke="#263238" stroke-linejoin="round" stroke-width="1"/>
            <line id="Line_9" data-name="Line 9" x2="30.35" transform="translate(10.721 12.304)" fill="#92e3a9" stroke="#263238" stroke-linejoin="round" stroke-width="1"/>
            <line id="Line_10" data-name="Line 10" x2="30.35" transform="translate(10.721 16.132)" fill="#92e3a9" stroke="#263238" stroke-linejoin="round" stroke-width="1"/>
          </g>
          <path id="Path_93" data-name="Path 93" d="M196.014,174.149l-14.346,10.43L168.6,174.461l-.016-.011A23.23,23.23,0,1,1,205.256,155.5,22.775,22.775,0,0,1,196.014,174.149Z" transform="translate(-108.154 -132.081)" fill="#fff" stroke="#263238" stroke-linecap="round" stroke-linejoin="round" stroke-width="1"/>
          <circle id="Ellipse_6" data-name="Ellipse 6" cx="20.436" cy="20.436" r="20.436" transform="translate(50.453 6.494) rotate(-9.142)" fill="#fca9ad" stroke="#263238" stroke-linejoin="round" stroke-width="1"/>
          <g id="Group_52" data-name="Group 52" transform="translate(56.497 3.534)">
            <path id="Path_94" data-name="Path 94" d="M201.448,166.577c1.471-8.316-6.708-11.733-7.526-15.967,0,0,2.049-.409,2.736-3.967s-.823-8.343-8.071-9.847-15.733,4.654-17.1,10.261,2.6,8.207.55,10.256a4.089,4.089,0,0,1-1.193.741c-1.025.627-2.48,1.51-3.45,2.049-1.635.9-2.545,9.809,5.994,10.9s10.534-1.635,15.259-2.18a67.839,67.839,0,0,1,11.133.234" transform="translate(-166.317 -136.566)" fill="#263238" stroke="#263238" stroke-linecap="round" stroke-linejoin="round" stroke-width="1"/>
          </g>
          <path id="Path_95" data-name="Path 95" d="M201.376,171.244c-2.873,0-6.429,2.051-7.66,2.051s-1.368-5.2-1.368-5.2l-6.428-1.368a41.376,41.376,0,0,1,.41,7.112c-.273,2.051-4.924,2.325-6.838,2.6s-3.01,1.5-3.556,4.377c-.011.058-.026.123-.04.185a20.3,20.3,0,0,0,7.98,2.476c2.775-.491,5.566-1.045,7.8-1.617,1.488-.381,2.94-.714,4.311-1a20.531,20.531,0,0,0,7.69-7.792A2.281,2.281,0,0,0,201.376,171.244Z" transform="translate(-111.941 -139.713)" fill="#fff" stroke="#263238" stroke-linecap="round" stroke-linejoin="round" stroke-width="1"/>
          <path id="Path_96" data-name="Path 96" d="M176.5,183.616a20.426,20.426,0,0,0,26.064-6.226c-3.413.435-3.72,2.233-5.706,2.233-2.188,0-4.787-.273-7.8,1.095s-3.419,1.914-7.66,1.914A12.525,12.525,0,0,0,176.5,183.616Z" transform="translate(-112.075 -142.074)" fill="#fca9ad" stroke="#263238" stroke-linecap="round" stroke-linejoin="round" stroke-width="1"/>
          <path id="Path_97" data-name="Path 97" d="M193.155,144.945s4.787,3.692,5.06,8.753-1.367,8.753-3.009,10.532-3.829,1.094-6.018-.41a15.516,15.516,0,0,1-3.693-3.83,3.014,3.014,0,0,1-1.778-.821,3.176,3.176,0,0,1-1.094-1.778s4.1-.136,5.06-2.872.137-5.2,1.5-7.112A7.258,7.258,0,0,1,193.155,144.945Z" transform="translate(-113.431 -134.887)" fill="#fff" stroke="#263238" stroke-linecap="round" stroke-linejoin="round" stroke-width="1"/>
          <path id="Path_98" data-name="Path 98" d="M193.636,153.822s-2.325-1.095-3.283.958" transform="translate(-115.143 -136.789)" fill="none" stroke="#263238" stroke-linecap="round" stroke-linejoin="round" stroke-width="1"/>
          <path id="Path_99" data-name="Path 99" d="M198.084,152.881s1.641-1.231,2.188.137" transform="translate(-116.856 -136.533)" fill="none" stroke="#263238" stroke-linecap="round" stroke-linejoin="round" stroke-width="1"/>
          <path id="Path_100" data-name="Path 100" d="M196.66,166.262a2.358,2.358,0,0,1-1.915-.41" transform="translate(-116.116 -139.518)" fill="none" stroke="#263238" stroke-linecap="round" stroke-linejoin="round" stroke-width="1"/>
          <path id="Path_101" data-name="Path 101" d="M197.792,154.432a17.341,17.341,0,0,0-.41,4.1c.137,1.641-.41,2.051-1.231,1.777" transform="translate(-116.427 -136.989)" fill="none" stroke="#263238" stroke-linecap="round" stroke-linejoin="round" stroke-width="1"/>
          <ellipse id="Ellipse_7" data-name="Ellipse 7" cx="0.493" cy="1.057" rx="0.493" ry="1.057" transform="translate(76.537 18.701)" fill="#263238"/>
          <ellipse id="Ellipse_8" data-name="Ellipse 8" cx="0.493" cy="1.057" rx="0.493" ry="1.057" transform="translate(82.247 18.137)" fill="#263238"/>
        </g>
      </g>
    </g>
    <g id="Location_1" data-name="Location 1" transform="translate(1100.636 362.657)">
      <g id="Group_60" data-name="Group 60" transform="translate(0 0)">
        <path id="Path_102" data-name="Path 102" d="M168.257,307.427a23.469,23.469,0,0,0-18.236,8.694H106.38a12.273,12.273,0,0,0,0,24.545h40.5a23.592,23.592,0,0,0,7.776,9.433l13.07,10.118a.276.276,0,0,0,.167.057.268.268,0,0,0,.16-.052l14.347-10.43h0a23.078,23.078,0,0,0,9.353-18.868A23.525,23.525,0,0,0,168.257,307.427Z" transform="translate(-93.354 -305.868)" fill="#263238"/>
        <g id="Group_59" data-name="Group 59">
          <g id="Group_55" data-name="Group 55" transform="translate(0 8.694)">
            <path id="Path_103" data-name="Path 103" d="M105.139,340.592h56.6v-24h-56.6a12,12,0,0,0-12,12h0A12,12,0,0,0,105.139,340.592Z" transform="translate(-93.139 -316.592)" fill="#fff" stroke="#263238" stroke-linecap="round" stroke-linejoin="round" stroke-width="1"/>
            <line id="Line_11" data-name="Line 11" x2="30.35" transform="translate(10.721 8.476)" fill="#92e3a9" stroke="#263238" stroke-linejoin="round" stroke-width="1"/>
            <line id="Line_12" data-name="Line 12" x2="30.35" transform="translate(10.721 12.304)" fill="#92e3a9" stroke="#263238" stroke-linejoin="round" stroke-width="1"/>
            <line id="Line_13" data-name="Line 13" x2="30.35" transform="translate(10.721 16.132)" fill="#92e3a9" stroke="#263238" stroke-linejoin="round" stroke-width="1"/>
          </g>
          <path id="Path_104" data-name="Path 104" d="M195.408,347.3l-14.347,10.429-13.07-10.117-.016-.011a23.23,23.23,0,1,1,36.675-18.948A22.776,22.776,0,0,1,195.408,347.3Z" transform="translate(-107.548 -305.425)" fill="#fff" stroke="#263238" stroke-linecap="round" stroke-linejoin="round" stroke-width="1"/>
          <g id="Group_58" data-name="Group 58" transform="translate(53.485 0.399)">
            <path id="Path_105" data-name="Path 105" d="M161.841,329.249a20.436,20.436,0,1,0,20.436-20.436A20.387,20.387,0,0,0,161.841,329.249Z" transform="translate(-161.841 -306.575)" fill="#fca9ad" stroke="#263238" stroke-linejoin="round" stroke-width="1"/>
            <g id="Group_57" data-name="Group 57" transform="translate(4.697)">
              <path id="Path_106" data-name="Path 106" d="M167.875,351.291a20.449,20.449,0,0,0,30.561,1.035l-9.842-2.2-13.618-.676Z" transform="translate(-167.875 -315.577)" fill="#fca9ad" stroke="#263238" stroke-linecap="round" stroke-linejoin="round" stroke-width="1"/>
              <path id="Path_107" data-name="Path 107" d="M179.785,340.634c.89-3.263-.148-8.306-.148-8.306,2.225-2.224,8.9,8.6,8.9,8.6s-.149,1.928,2.076,5.34c.135.206.27.4.406.577-1.376,2.211-4.295,6.388-6.487,5.949-2.076-.416-5.6-4.679-7.534-7.2C179.026,344.314,179.108,343.119,179.785,340.634Z" transform="translate(-169.895 -311.717)" fill="#fff" stroke="#263238" stroke-linecap="round" stroke-linejoin="round" stroke-width="1"/>
              <path id="Path_108" data-name="Path 108" d="M177.292,324.165s-1.038-.148-1.186,1.78.742,2.966,1.483,2.966h1.186a28.781,28.781,0,0,0,.742,3.411c.593,2.224.593,3.411,5.34,5.339s5.932,1.632,7.267-.445,1.335-9.641,1.483-12.9.742-6.971.742-6.971a11.261,11.261,0,0,0-3.411-2.373c-2.225-1.039-9.048.149-11.124,1.186s-1.335,6.378-1.335,6.378Z" transform="translate(-169.694 -307.849)" fill="#fff" stroke="#263238" stroke-linecap="round" stroke-linejoin="round" stroke-width="1"/>
              <path id="Path_109" data-name="Path 109" d="M194.571,339.652a6.779,6.779,0,0,1-4.17-.242" transform="translate(-172.864 -313.352)" fill="none" stroke="#263238" stroke-linecap="round" stroke-linejoin="round" stroke-width="1"/>
              <path id="Path_110" data-name="Path 110" d="M195.733,329.119c0,.491.2.89.445.89s.445-.4.445-.89-.2-.89-.445-.89S195.733,328.628,195.733,329.119Z" transform="translate(-174.045 -310.875)" fill="#263238"/>
              <path id="Path_111" data-name="Path 111" d="M190.208,329.881c0,.491.2.89.445.89s.445-.4.445-.89-.2-.89-.445-.89S190.208,329.39,190.208,329.881Z" transform="translate(-172.822 -311.044)" fill="#263238"/>
              <path id="Path_112" data-name="Path 112" d="M196.984,325.663a1.469,1.469,0,0,0-1.632-.148" transform="translate(-173.961 -310.237)" fill="none" stroke="#263238" stroke-linecap="round" stroke-linejoin="round" stroke-width="1"/>
              <path id="Path_113" data-name="Path 113" d="M190.275,326.1a2.578,2.578,0,0,0-3.115,1.335" transform="translate(-172.147 -310.375)" fill="none" stroke="#263238" stroke-linecap="round" stroke-linejoin="round" stroke-width="1"/>
              <path id="Path_114" data-name="Path 114" d="M193.612,328.376l.558,5.966-2.818.3" transform="translate(-173.075 -310.908)" fill="none" stroke="#263238" stroke-linecap="round" stroke-linejoin="round" stroke-width="1"/>
              <g id="Group_56" data-name="Group 56" transform="translate(4.626)">
                <path id="Path_115" data-name="Path 115" d="M173.823,311.871c.148-2.373,3.856-1.483,6.23-2.373s6.525-3.56,10.086-3.56a3.975,3.975,0,0,1,4.153,2.967l-.148-2.374a4.488,4.488,0,0,1,2.224,3.857c-.148,2.522-1.928,5.488-3.114,5.34s-11.273-.594-11.866.89,1.632,4.3,1.632,4.3c-.149,1.483-2.373,1.186-2.522,1.78a23.173,23.173,0,0,0,.149,4.3,4.75,4.75,0,0,1-.61,2.38,3.35,3.35,0,0,0,.61,2.069,3.608,3.608,0,0,0,2.817,1.186s3.411-3.114,5.933-2.669,3.115,1.632,3.115,1.632l.07.025c-.067.527-.145,1.023-.234,1.483a4.546,4.546,0,0,0-3.544-2.25c-2.373,0-4.894,2.818-4.894,2.818s2.522,1.632,3.856,1.632,1.039-1.632,1.928-1.483.593,1.038,1.039,1.038a2.31,2.31,0,0,0,1.4-.838,4.8,4.8,0,0,1-.514,1.283c-1.335,2.076-2.522,2.373-7.267.445s-4.747-3.115-5.34-5.339c-.06-.224-.112-.43-.163-.634a17.614,17.614,0,0,1,.705-3.089c.038-1.8-.191-3.539-.691-4.139-.741-.89-2.076-.3-2.076-.3S173.674,314.244,173.823,311.871Z" transform="translate(-173.817 -305.938)" fill="#263238" stroke="#263238" stroke-linecap="round" stroke-linejoin="round" stroke-width="1"/>
              </g>
            </g>
          </g>
        </g>
      </g>
    </g>
  </g>
</svg>
